<svg xmlns="http://www.w3.org/2000/svg" viewBox="0 0 48 48" width="48" height="48" preserveAspectRatio="xMidYMid meet"
     style="width: 100%; height: 100%; transform: translate3d(0px, 0px, 0px);">
    <defs>
        <clipPath id="__lottie_element_111">
            <rect width="48" height="48" x="0" y="0"></rect>
        </clipPath>
        <mask id="__lottie_element_112" mask-type="alpha">
            <g transform="matrix(1,0,0,1,24,24)" opacity="1" style="display: block;">
                <g opacity="1" transform="matrix(1,0,0,1,0,0)">
                    <path fill="rgb(237,231,246)" fill-opacity="1"
                          d=" M0,-20 C-11.045999526977539,-20 -20,-11.045999526977539 -20,0 C-20,11.045999526977539 -11.045999526977539,20 0,20 C11.045999526977539,20 20,11.045999526977539 20,0 C20,-11.045999526977539 11.045999526977539,-20 0,-20z"
                          data-darkreader-inline-fill="" style="--darkreader-inline-fill: #3a3e3f;"></path>
                </g>
            </g>
        </mask>
        <mask id="__lottie_element_119" mask-type="alpha">
            <g transform="matrix(1,0,0,1,24,24)" opacity="1" style="display: block;">
                <g opacity="1" transform="matrix(1,0,0,1,0,0)">
                    <path fill="rgb(237,231,246)" fill-opacity="1"
                          d=" M0,-20 C-11.045999526977539,-20 -20,-11.045999526977539 -20,0 C-20,11.045999526977539 -11.045999526977539,20 0,20 C11.045999526977539,20 20,11.045999526977539 20,0 C20,-11.045999526977539 11.045999526977539,-20 0,-20z"
                          data-darkreader-inline-fill="" style="--darkreader-inline-fill: #3a3e3f;"></path>
                </g>
            </g>
        </mask>
    </defs>
    <g clip-path="url(#__lottie_element_111)">
        <g transform="matrix(1,0,0,1,24,24)" opacity="1" style="display: block;">
            <g opacity="1" transform="matrix(1,0,0,1,0,0)">
                <path fill="rgb(237,231,246)" fill-opacity="1"
                      d=" M0,-20 C-11.045999526977539,-20 -20,-11.045999526977539 -20,0 C-20,11.045999526977539 -11.045999526977539,20 0,20 C11.045999526977539,20 20,11.045999526977539 20,0 C20,-11.045999526977539 11.045999526977539,-20 0,-20z"
                      data-darkreader-inline-fill="" style="--darkreader-inline-fill: #3a3e3f;"></path>
            </g>
        </g>
        <g mask="url(#__lottie_element_119)" style="display: block;">
            <g transform="matrix(1,0,0,1,24,23.122861862182617)" opacity="1">
                <g opacity="1" transform="matrix(1,0,0,1,0,0)">
                    <path fill="rgb(103,58,183)" fill-opacity="1"
                          d=" M0,23 C2.9570000171661377,23 12,23 12,23 C12,23 12,19 11.939000129699707,16.01799964904785 C11.319999694824219,8.45199966430664 3.75,7 3.75,7 C3.75,7 0,7.769999980926514 0,7.769999980926514 C0,7.769999980926514 -3.75,7 -3.75,7 C-3.75,7 -11.321999549865723,8.423999786376953 -11.9399995803833,16.01799964904785 C-12,19 -12,23 -12,23 C-12,23 -2.9570000171661377,23 0,23z"
                          data-darkreader-inline-fill="" style="--darkreader-inline-fill: #754ac1;"></path>
                </g>
                <g opacity="1" transform="matrix(1,0,0,1,0,0)">
                    <path fill="rgb(255,152,0)" fill-opacity="1" d=" M4,7 C4,7 4,11 0,11 C-4,11 -4,7 -4,7"
                          data-darkreader-inline-fill="" style="--darkreader-inline-fill: #ffd432;"></path>
                </g>
                <g opacity="1" transform="matrix(1,0,0,1,0,0)">
                    <path fill="rgb(49,27,146)" fill-opacity="1"
                          d=" M0,13 C3.059000015258789,13 5.578000068664551,10.708000183105469 5.947999954223633,7.75 C5.064000129699707,7.3520002365112305 4.34499979019165,7.14300012588501 3.99399995803833,7.057000160217285 C3.9630000591278076,9.23799991607666 2.188999891281128,11 0,11 C-2.190000057220459,11 -3.9639999866485596,9.23799991607666 -3.99399995803833,7.054999828338623 C-4.3470001220703125,7.140999794006348 -5.065000057220459,7.3480000495910645 -5.948999881744385,7.743000030517578 C-5.583000183105469,10.704999923706055 -3.062000036239624,13 0,13z"
                          data-darkreader-inline-fill="" style="--darkreader-inline-fill: #b096ff;"></path>
                </g>
                <g opacity="1" transform="matrix(1,0,0,1,0,0)">
                    <path fill="rgb(193,110,20)" fill-opacity="1"
                          d=" M4,7 C4,7 4,3 4,3 C4,3 -4,3 -4,3 C-4,3 -4,7 -4,7 C-4,7 -4,11 0,11 C4,11 4,7 4,7z"
                          data-darkreader-inline-fill="" style="--darkreader-inline-fill: #ffcf6b;"></path>
                </g>
            </g>
        </g>
        <g mask="url(#__lottie_element_112)" style="display: block;">
            <g transform="matrix(1,0,0,1,24,23.891983032226562)" opacity="1">
                <g opacity="1" transform="matrix(1,0,0,1,0,0)">
                    <path fill="rgb(193,110,20)" fill-opacity="1"
                          d=" M8,-1.5 C8,-0.671999990940094 7.328000068664551,0 6.5,0 C5.671000003814697,0 5,-0.671999990940094 5,-1.5 C5,-2.328000068664551 5.671000003814697,-3 6.5,-3 C7.328000068664551,-3 8,-2.328000068664551 8,-1.5"
                          data-darkreader-inline-fill="" style="--darkreader-inline-fill: #ffcf6b;"></path>
                </g>
                <g opacity="1" transform="matrix(1,0,0,1,0,0)">
                    <path fill="rgb(193,110,20)" fill-opacity="1"
                          d=" M-5,-1.5 C-5,-2.328000068664551 -5.671999931335449,-3 -6.5,-3 C-7.328000068664551,-3 -8,-2.328000068664551 -8,-1.5 C-8,-0.671999990940094 -7.328000068664551,0 -6.5,0 C-5.671999931335449,0 -5,-0.671999990940094 -5,-1.5"
                          data-darkreader-inline-fill="" style="--darkreader-inline-fill: #ffcf6b;"></path>
                </g>
                <g opacity="1" transform="matrix(1,0,0,1,0,0)">
                    <path fill="rgb(229,133,46)" fill-opacity="1"
                          d=" M7,-5.320000171661377 C7,-11.199000358581543 -7,-9.147000312805176 -7,-5.320000171661377 C-7,-5.320000171661377 -7,-0.9290000200271606 -7,-0.9290000200271606 C-7,2.8949999809265137 -3.867000102996826,6.000999927520752 0,6.000999927520752 C3.865999937057495,6.000999927520752 7,2.8959999084472656 7,-0.9290000200271606 C7,-0.9290000200271606 7,-5.320000171661377 7,-5.320000171661377z"
                          data-darkreader-inline-fill="" style="--darkreader-inline-fill: #ffbd5e;"></path>
                </g>
                <g opacity="1" transform="matrix(1,0,0,1,0,0)">
                    <path fill="rgb(109,76,65)" fill-opacity="1"
                          d=" M0,-13 C-4.860000133514404,-13 -8,-8.687000274658203 -8,-4.828000068664551 C-8,-4.828000068664551 -8,-3 -8,-3 C-8,-3 -6,-1 -6,-1 C-6,-1 -6.000822067260742,-4.747409820556641 -6.000822067260742,-4.747409820556641 C-6.000822067260742,-4.747409820556641 3.1991782188415527,-7.747409820556641 3.1991782188415527,-7.747409820556641 C3.1991782188415527,-7.747409820556641 5.999177932739258,-4.747409820556641 5.999177932739258,-4.747409820556641 C5.999177932739258,-4.747409820556641 6,-1 6,-1 C6,-1 8,-3 8,-3 C8,-3 8,-3.809000015258789 8,-3.809000015258789 C8,-7.0269999504089355 7.169000148773193,-10.612000465393066 3.200000047683716,-11.401000022888184 C3.200000047683716,-11.401000022888184 2.3989999294281006,-13 2.3989999294281006,-13 C2.3989999294281006,-13 0,-13 0,-13z"
                          data-darkreader-inline-fill="" style="--darkreader-inline-fill: #f5cfc2;"></path>
                </g>
                <g opacity="1" transform="matrix(1,0,0,1,0,0.27395889163017273)">
                    <path fill="rgb(33,33,33)" fill-opacity="1"
                          d=" M2,-2 C2,-2.5510001182556152 2.447999954223633,-3 3,-3 C3.552000045776367,-3 4,-2.5510001182556152 4,-2 C4,-1.4490000009536743 3.552000045776367,-1 3,-1 C2.447999954223633,-1 2,-1.4490000009536743 2,-2"
                          data-darkreader-inline-fill="" style="--darkreader-inline-fill: #ffffff;"></path>
                </g>
                <g opacity="1" transform="matrix(1,0,0,1,0,0.27395889163017273)">
                    <path fill="rgb(33,33,33)" fill-opacity="1"
                          d=" M-4,-2 C-4,-1.4490000009536743 -3.552000045776367,-1 -3,-1 C-2.447999954223633,-1 -2,-1.4490000009536743 -2,-2 C-2,-2.5510001182556152 -2.447999954223633,-3 -3,-3 C-3.552000045776367,-3 -4,-2.5510001182556152 -4,-2"
                          data-darkreader-inline-fill="" style="--darkreader-inline-fill: #ffffff;"></path>
                </g>
            </g>
        </g>
    </g>
</svg>
